<svg width="24" height="25" viewBox="0 0 24 25" fill="none" xmlns="http://www.w3.org/2000/svg">
<mask id="path-1-inside-1_1_65" fill="white">
<path d="M16.5707 15.7321H15.5463L15.1832 15.3647C16.498 13.7647 17.2206 11.722 17.2191 9.6095C17.2191 7.86039 16.7248 6.15055 15.7986 4.69621C14.8724 3.24187 13.556 2.10836 12.0158 1.439C10.4756 0.76964 8.78076 0.594505 7.14569 0.935741C5.51062 1.27698 4.00871 2.11926 2.82989 3.35607C1.65107 4.59288 0.848285 6.16868 0.523049 7.88418C0.197813 9.59969 0.364736 11.3779 1.00271 12.9938C1.64068 14.6098 2.72105 15.991 4.1072 16.9628C5.49334 17.9345 7.12301 18.4532 8.79011 18.4532C10.8779 18.4532 12.7971 17.6505 14.2755 16.3171L14.6256 16.6981V17.7729L21.1094 24.5621L23.0416 22.5349L16.5707 15.7321ZM8.79011 15.7321C5.56115 15.7321 2.95463 12.9973 2.95463 9.6095C2.95463 6.22169 5.56115 3.48695 8.79011 3.48695C12.0191 3.48695 14.6256 6.22169 14.6256 9.6095C14.6256 12.9973 12.0191 15.7321 8.79011 15.7321Z"/>
</mask>
<path d="M16.5707 15.7321L28.8883 4.01552L23.8627 -1.26794H16.5707V15.7321ZM15.5463 15.7321L3.45562 27.6826L8.44655 32.7321H15.5463V15.7321ZM15.1832 15.3647L2.04877 4.5718L-7.68234 16.4141L3.09253 27.3153L15.1832 15.3647ZM17.2191 9.6095L0.219126 9.6095L0.219134 9.62101L17.2191 9.6095ZM8.79011 18.4532V1.45319V18.4532ZM14.2755 16.3171L26.7921 4.81343L15.3957 -7.58649L2.88953 3.69329L14.2755 16.3171ZM14.6256 16.6981H31.6256V10.0726L27.1422 5.19439L14.6256 16.6981ZM14.6256 17.7729H-2.37442V24.5865L2.33146 29.5141L14.6256 17.7729ZM21.1094 24.5621L8.81533 36.3033L21.1218 49.1893L33.4153 36.291L21.1094 24.5621ZM23.0416 22.5349L35.3475 34.2637L46.5152 22.5466L35.3592 10.8184L23.0416 22.5349ZM16.5707 -1.26794H15.5463V32.7321H16.5707V-1.26794ZM27.637 3.7815L27.2739 3.41415L3.09253 27.3153L3.45562 27.6826L27.637 3.7815ZM28.3176 26.1576C32.1885 21.4469 34.2232 15.5648 34.2191 9.598L0.219134 9.62101C0.217955 7.8793 0.807405 6.08248 2.04877 4.5718L28.3176 26.1576ZM34.2191 9.6095C34.2191 4.67475 32.8281 -0.211091 30.1377 -4.43562L1.45949 13.828C0.621488 12.5122 0.21913 11.046 0.21913 9.6095L34.2191 9.6095ZM30.1377 -4.43562C27.4424 -8.66782 23.5275 -12.0941 18.7916 -14.1523L5.23992 17.0303C3.58439 16.3108 2.30237 15.1516 1.45949 13.828L30.1377 -4.43562ZM18.7916 -14.1523C14.0448 -16.2152 8.7704 -16.7696 3.67265 -15.7057L10.6187 17.5772C8.79111 17.9586 6.90635 17.7545 5.23992 17.0303L18.7916 -14.1523ZM3.67265 -15.7057C-1.4182 -14.6433 -5.97714 -12.0437 -9.47597 -8.37278L15.1357 15.0849C13.9946 16.2822 12.4394 17.1972 10.6187 17.5772L3.67265 -15.7057ZM-9.47597 -8.37278C-12.9665 -4.71055 -15.2583 -0.141198 -16.1794 4.71763L17.2255 11.0507C16.9548 12.4786 16.2686 13.8963 15.1357 15.0849L-9.47597 -8.37278ZM-16.1794 4.71763C-17.1001 9.5738 -16.634 14.6154 -14.8096 19.2364L16.8151 6.75126C17.3635 8.14035 17.4957 9.62559 17.2255 11.0507L-16.1794 4.71763ZM-14.8096 19.2364C-12.9832 23.8628 -9.83877 27.9473 -5.65147 30.8828L13.8659 3.04269C15.2809 4.03468 16.2645 5.3568 16.8151 6.75126L-14.8096 19.2364ZM-5.65147 30.8828C-1.45321 33.826 3.57375 35.4532 8.79011 35.4532V1.45319C10.6723 1.45319 12.4399 2.04301 13.8659 3.04269L-5.65147 30.8828ZM8.79011 35.4532C15.3444 35.4532 21.2588 32.9118 25.6614 28.9409L2.88953 3.69329C4.33547 2.38914 6.4114 1.45319 8.79011 1.45319L8.79011 35.4532ZM1.75884 27.8208L2.10897 28.2017L27.1422 5.19439L26.7921 4.81343L1.75884 27.8208ZM-2.37442 16.6981V17.7729H31.6256V16.6981H-2.37442ZM2.33146 29.5141L8.81533 36.3033L33.4036 12.821L26.9197 6.03176L2.33146 29.5141ZM33.4153 36.291L35.3475 34.2637L10.7358 10.806L8.80359 12.8333L33.4153 36.291ZM35.3592 10.8184L28.8883 4.01552L4.25317 27.4486L10.7241 34.2514L35.3592 10.8184ZM8.79011 -1.26794C15.7101 -1.26794 19.9546 4.38705 19.9546 9.6095H-14.0454C-14.0454 21.6076 -4.5878 32.7321 8.79011 32.7321V-1.26794ZM19.9546 9.6095C19.9546 14.832 15.7101 20.4869 8.79011 20.4869V-13.5131C-4.5878 -13.5131 -14.0454 -2.38858 -14.0454 9.6095H19.9546ZM8.79011 20.4869C1.87012 20.4869 -2.37442 14.832 -2.37442 9.6095H31.6256C31.6256 -2.38857 22.168 -13.5131 8.79011 -13.5131V20.4869ZM-2.37442 9.6095C-2.37442 4.38705 1.87012 -1.26794 8.79011 -1.26794V32.7321C22.168 32.7321 31.6256 21.6076 31.6256 9.6095H-2.37442Z" fill="white" mask="url(#path-1-inside-1_1_65)"/>
</svg>
