<svg width="26" height="29" viewBox="0 0 26 29" fill="none" xmlns="http://www.w3.org/2000/svg">
<path d="M1.95829 25.309C1.95685 25.8709 2.1407 26.4176 2.48138 26.8645L2.48245 26.8659C2.7325 27.1915 2.98611 27.5143 3.24324 27.8343H2.07312C1.96825 27.6999 1.86267 27.5635 1.75601 27.4252C1.28959 26.8203 1.04163 26.0706 1.04163 25.3107C1.04163 23.5968 2.27812 22.1162 3.98719 21.8667L3.98726 21.8667C10.6958 20.8863 15.3476 20.9739 22.0308 21.8989L22.0309 21.8989C23.7204 22.1323 24.9583 23.5881 24.9583 25.2848V25.2852C24.9589 26.069 24.6888 26.829 24.1937 27.4366C24.0832 27.5707 23.9739 27.7029 23.8655 27.8333H22.6672C22.9433 27.5105 23.2158 27.1847 23.4848 26.856C23.8446 26.4165 24.0413 25.858 24.0416 25.2853C24.0451 24.6846 23.8313 24.1028 23.4396 23.6473C23.0475 23.1913 22.5037 22.8925 21.9085 22.8062L21.9053 22.8058C15.2963 21.8907 10.7319 21.8068 4.11964 22.7728C2.87571 22.9543 1.95863 24.0358 1.95829 25.309ZM1.95829 25.309C1.95829 25.3093 1.95829 25.3095 1.95829 25.3098H2.45829L1.95829 25.3083C1.95829 25.3086 1.95829 25.3088 1.95829 25.309ZM21.5684 28.3333H22.2349H21.5684ZM13 14.4583C13.8207 14.4583 14.6334 14.2966 15.3917 13.9825C16.15 13.6684 16.839 13.2081 17.4194 12.6277C17.9997 12.0473 18.4601 11.3583 18.7742 10.6001C19.0883 9.84178 19.25 9.02905 19.25 8.20829C19.25 7.38753 19.0883 6.57481 18.7742 5.81652C18.4601 5.05824 17.9997 4.36924 17.4194 3.78888C16.839 3.20851 16.15 2.74814 15.3917 2.43405C14.6334 2.11995 13.8207 1.95829 13 1.95829C11.3424 1.95829 9.75264 2.61677 8.58054 3.78888C7.40844 4.96098 6.74996 6.55069 6.74996 8.20829C6.74996 9.8659 7.40844 11.4556 8.58054 12.6277C9.75264 13.7998 11.3424 14.4583 13 14.4583ZM18.0676 13.2759C16.7235 14.6199 14.9007 15.375 13 15.375C11.0992 15.375 9.27637 14.6199 7.93236 13.2759C6.58835 11.9319 5.83329 10.109 5.83329 8.20829C5.83329 6.30757 6.58835 4.4847 7.93236 3.14069C9.27637 1.79668 11.0992 1.04163 13 1.04163C14.9007 1.04163 16.7235 1.79668 18.0676 3.14069C19.4116 4.4847 20.1666 6.30757 20.1666 8.20829C20.1666 10.109 19.4116 11.9319 18.0676 13.2759Z" fill="white" stroke="white"/>
</svg>
